<?xml version="1.0" encoding="iso-8859-1"?>
<!-- Generator: Adobe Illustrator 19.0.0, SVG Export Plug-In . SVG Version: 6.00 Build 0)  -->
<svg version="1.1" id="Capa_1" xmlns="http://www.w3.org/2000/svg" xmlns:xlink="http://www.w3.org/1999/xlink" x="0px" y="0px"
	 viewBox="0 0 489.6 489.6" style="enable-background:new 0 0 489.6 489.6;" xml:space="preserve">
<g>
	<path d="M436.9,415.974l9.9-127.2l11.3-13.4c5.5-6.5,8.5-14.8,8.5-23.3v-56.5v-15.2c0-3.2-1.4-6.3-3.9-8.3
		c-13.7-11.3-28.5-18.8-31.5-20.2c-0.3-0.1-0.5-0.4-0.5-0.8c0-0.9,0-5.2,0-9.3c1.7-2.9,2.8-5.9,3.2-8.6c1.2-0.1,2.7-1.8,4.4-7.7
		c2.1-7.6,0.1-9.1-1.8-9.1c0.2-0.6,0.3-1.3,0.5-1.9c3.5-20.9-6.8-21.7-6.8-21.7s-1.7-3.3-6.2-5.8c-3-1.8-7.2-3.2-12.8-2.7
		c-1.8,0.1-3.5,0.4-5.1,1l0,0c-2,0.7-3.9,1.7-5.6,2.9c-2.1,1.3-4,2.9-5.7,4.8c-2.7,2.8-5.2,6.4-6.2,10.9c-0.9,3.4-0.7,6.9,0,10.6
		l0,0c0.1,0.6,0.3,1.3,0.5,1.9c-1.9,0-3.8,1.6-1.7,9.1c1.7,5.9,3.2,7.6,4.4,7.7c0.4,2.7,1.5,5.8,3.2,8.6v9.3c0,0.3-0.2,0.6-0.5,0.8
		c-3,1.5-17.8,8.9-31.5,20.2c-2.5,2-3.9,5.1-3.9,8.3v15.2v56.7c0,8.4,2.9,16.6,8.3,23.1l11.5,13.5l9.9,127.3h-33.1v-38.9h-83.9
		l11-141.9l12.6-15c6.1-7.3,9.5-16.5,9.5-26v-63v-16.9c0-3.6-1.6-7-4.4-9.3c-15.3-12.6-31.8-20.9-35.1-22.5
		c-0.3-0.2-0.5-0.5-0.6-0.9c0-1,0-5.8,0-10.4c1.8-3.2,3-6.5,3.5-9.5c1.3-0.1,3-1.9,4.9-8.5c2.5-8.7,0-10.2-2.2-10.1
		c5.6-25.4-8.7-25.5-8.7-25.5c-1.2-5.3-8.8-10.9-15.8-9.4c-7.1,1.5-21.6-0.2-21.6-0.2c-0.2,3.1,2.4,5.2,2.4,5.2
		c-12.8,7.8-9.9,25-8.7,29.9c-2.2,0-4.4,1.7-2,10.1c1.9,6.6,3.6,8.4,4.9,8.5c0.5,3,1.7,6.4,3.5,9.5v10.4c0,0.4-0.2,0.7-0.6,0.9
		c-3.3,1.6-19.8,9.9-35.1,22.5c-2.8,2.3-4.4,5.7-4.4,9.3v16.9v63.2c0,9.4,3.3,18.5,9.2,25.7l12.8,15l11.1,141.9h-83.8v37.3h-32.9
		l9.7-125.6l11.3-13.4c5.5-6.5,8.5-14.8,8.5-23.3v-56.5v-15.2c0-3.2-1.4-6.3-3.9-8.3c-13.7-11.3-28.5-18.8-31.5-20.2
		c-0.3-0.1-0.5-0.4-0.5-0.8c0-0.9,0-5.2,0-9.3c1.7-2.9,2.8-5.9,3.2-8.6c1.2-0.1,2.7-1.8,4.4-7.7c2.1-7.6,0.1-9.1-1.8-9.1
		c0.2-0.6,0.3-1.3,0.5-1.9c3.5-20.9-6.8-21.7-6.8-21.7s-1.7-3.3-6.2-5.8c-3-1.8-7.2-3.2-12.8-2.7c-1.8,0.1-3.5,0.4-5.1,1l0,0
		c-2,0.7-3.9,1.7-5.6,2.9c-2.1,1.3-4,2.9-5.7,4.8c-2.7,2.8-5.2,6.4-6.2,10.9c-0.9,3.4-0.7,6.9,0,10.6l0,0c0.1,0.6,0.3,1.3,0.5,1.9
		c-1.9,0-3.8,1.6-1.7,9.1c1.7,5.9,3.2,7.6,4.4,7.7c0.4,2.7,1.5,5.8,3.2,8.6v9.3c0,0.3-0.2,0.6-0.5,0.8c-3,1.5-17.8,8.9-31.5,20.2
		c-2.5,2-3.9,5.1-3.9,8.3v15.2v56.7c0,8.4,2.9,16.6,8.3,23.1l11.2,13.3l9.8,125.6H0v67.1h30.7h428.2h30.7v-65.5H436.9z
		 M244.8,91.974L244.8,91.974L244.8,91.974c2.3,0,15.7,0.8,3.3,18l6.1,51.9l-9.3,10.5l-9.5-10.5l6.1-51.9
		C229.1,92.874,242.5,91.974,244.8,91.974z"/>
</g>
<g>
</g>
<g>
</g>
<g>
</g>
<g>
</g>
<g>
</g>
<g>
</g>
<g>
</g>
<g>
</g>
<g>
</g>
<g>
</g>
<g>
</g>
<g>
</g>
<g>
</g>
<g>
</g>
<g>
</g>
</svg>
